<svg xmlns="http://www.w3.org/2000/svg" xmlns:xlink="http://www.w3.org/1999/xlink" version="1.1" x="0px" y="0px" viewBox="0 0 512 640" style="enable-background:new 0 0 512 512;" xml:space="preserve"><g><path d="M241.98,466.42H34.89c-4.42,0-8,3.58-8,8s3.58,8,8,8h207.09c4.42,0,8-3.58,8-8S246.4,466.42,241.98,466.42z"/><path d="M187.96,413.21c0-4.42-3.58-8-8-8H15.47c-4.42,0-8,3.58-8,8s3.58,8,8,8h164.49C184.38,421.21,187.96,417.62,187.96,413.21z   "/><path d="M121.71,360c4.42,0,8-3.58,8-8s-3.58-8-8-8H9c-4.42,0-8,3.58-8,8s3.58,8,8,8H121.71z"/><path d="M510.98,429.79c-0.01-0.1-0.01-0.21-0.02-0.31c-0.03-0.29-0.06-0.57-0.12-0.85c0-0.01,0-0.01,0-0.02   c-0.06-0.3-0.14-0.6-0.24-0.89c0-0.01,0-0.02-0.01-0.03L498,389.43c-10.97-33.3-41.89-55.68-76.95-55.68h-6.65L369.4,145.81   l-11.75-52.8c-0.89-3.98-4.62-6.66-8.67-6.21c-24.77,2.69-40.72,14.98-47.58,36.58c-5.17-3.42-10.04-7.34-14.52-11.74   c-19.68-19.32-30.38-46.2-29.36-73.75c0.1-2.63-1.11-5.14-3.22-6.71c-2.11-1.57-4.86-2-7.36-1.15   c-30.58,10.43-66.48,33.31-96.04,61.21c-32.45,30.64-53.22,63.35-58.74,92.41l-22.11,22.11c-4.08,4.08-6.25,9.49-6.13,15.26   c0.12,5.76,2.53,11.08,6.78,14.98L333.17,476.9c3.87,3.56,8.9,5.51,14.16,5.51h142.73c11.55,0,20.94-9.4,20.94-20.94v-31.28   C511,430.06,510.99,429.92,510.98,429.79z M408.08,349.75h12.96c28.14,0,52.95,17.96,61.75,44.68l9.14,27.76h-123.9L207.06,274.95   l50.61-14.65c6.96-2.02,12.2-7.41,14-14.43c1.81-7.02-0.18-14.27-5.3-19.4l-20.7-20.7c-1.53-1.53-1.3-3.33-1.14-4.03   s0.79-2.41,2.85-3.07l109.75-35.4l9.78,40.84l-36.76,11.36c-4.22,1.3-6.59,5.78-5.28,10c1.06,3.44,4.22,5.64,7.64,5.64   c0.78,0,1.58-0.12,2.36-0.36l35.77-11.05l8.13,33.97L345.32,264c-4.22,1.3-6.59,5.78-5.28,10c1.06,3.44,4.22,5.64,7.64,5.64   c0.78,0,1.58-0.12,2.36-0.36l32.46-10.03l8.12,33.92l-30.28,9.35c-4.22,1.3-6.59,5.78-5.28,10c1.06,3.44,4.22,5.64,7.64,5.64   c0.78,0,1.58-0.12,2.36-0.36l29.29-9.05l5.95,24.84C401.16,347.21,404.38,349.75,408.08,349.75z M343.67,103.86l7.97,35.82   c-12.43-0.52-24.59-3.4-35.85-8.41C319.68,116.16,328.68,107.27,343.67,103.86z M275.67,123.05c16.23,15.93,36.79,26.53,58.8,30.71   l-92,29.68c-6.78,2.19-11.82,7.62-13.49,14.55c-1.67,6.92,0.34,14.06,5.38,19.1l20.7,20.7c1.56,1.56,1.3,3.38,1.12,4.1   s-0.84,2.43-2.96,3.05l-59.99,17.37l-35.81-32.75c36.22-36.87,43.26-93.36,17.18-138.01c21.59-18.22,45.4-33.28,67.11-42.42   C243.58,76.92,255.62,103.36,275.67,123.05z M161.89,102.86c0.15-0.14,0.31-0.28,0.46-0.42c20.63,38.11,13.99,85.35-16.75,116.3   l-37.31-34.13C113.75,159.33,132.64,130.48,161.89,102.86z M490.06,466.42H347.33c-1.24,0-2.43-0.46-3.34-1.3L81.53,224.19   c-1-0.92-1.57-2.18-1.6-3.54c-0.03-1.36,0.48-2.64,1.45-3.6l18.47-18.47L359.54,436.1c1.47,1.35,3.4,2.1,5.4,2.1H495v23.28   C495,464.2,492.78,466.42,490.06,466.42z"/></g><text x="0" y="527" fill="#000000" font-size="5px" font-weight="bold" font-family="'Helvetica Neue', Helvetica, Arial-Unicode, Arial, Sans-serif">Created by icon-field</text><text x="0" y="532" fill="#000000" font-size="5px" font-weight="bold" font-family="'Helvetica Neue', Helvetica, Arial-Unicode, Arial, Sans-serif">from the Noun Project</text></svg>